# xmcd CD database file
#
# Track frame offsets:
#	150
#	28279
#	63747
#	93726
#	113651
#	142712
#	176639
#	205789
#	214117
#	245969
#	265314
#
# Disc length: 4013 seconds
#
# Revision: 0
# Processed by: cddbd v1.5.1PL0 Copyright (c) Steve Scherf et al.
# Submitted via: CDex 1.51
#
DISCID=a90fab0b
DTITLE=Jovino Santos Neto Quinteto - Canto do Rio
DYEAR=2003
DGENRE=Jazz
TTITLE0=Guanabara
TTITLE1=Primavera Em Flor
TTITLE2=Pedra Branca
TTITLE3=Guaratiba
TTITLE4=Sempre Sim
TTITLE5=Batuki di Bangu
TTITLE6=Feira Livre
TTITLE7=Ciranda Chegada
TTITLE8=Ciranda roda
TTITLE9=Comichão
TTITLE10=Canto do Rio
EXTD=YEAR: 2003
EXTT0=
EXTT1=
EXTT2=
EXTT3=
EXTT4=
EXTT5=
EXTT6=
EXTT7=
EXTT8=
EXTT9=
EXTT10=
PLAYORDER=
